<!DOCTYPE svg PUBLIC "-//W3C//DTD SVG 20010904//EN" "http://www.w3.org/TR/2001/REC-SVG-20010904/DTD/svg10.dtd">
<svg version="1.0" xmlns="http://www.w3.org/2000/svg" width="500px" height="375px" viewBox="0 0 5000 3750" preserveAspectRatio="xMidYMid meet">
<g id="layer101" fill="#040404" stroke="none">
 <path d="M0 1875 l0 -1875 2500 0 2500 0 0 1875 0 1875 -2500 0 -2500 0 0 -1875z"/>
 </g>
<g id="layer102" fill="#2e2e2e" stroke="none">
 <path d="M0 1875 l0 -1875 2500 0 2500 0 0 1875 0 1875 -2500 0 -2500 0 0 -1875z m2983 1837 c649 -8 625 -6 612 -62 -5 -23 -16 -295 -29 -754 l-6 -199 40 7 c25 4 52 1 73 -8 19 -8 169 -154 368 -357 384 -393 489 -506 489 -526 0 -13 -138 -83 -224 -114 -20 -7 -36 -17 -36 -22 0 -5 -8 -6 -17 -3 -10 4 -14 4 -10 0 4 -4 -86 -55 -200 -114 -115 -59 -239 -124 -278 -145 -38 -21 -98 -54 -132 -73 -62 -33 -63 -34 -63 -75 0 -24 6 -96 14 -162 18 -156 51 -697 43 -717 -3 -9 -32 -31 -64 -49 -32 -18 -91 -59 -132 -91 l-73 -59 -57 6 c-54 5 -414 27 -651 40 -63 3 -248 15 -410 25 -162 11 -380 24 -485 30 -247 14 -346 27 -366 48 -26 28 -66 358 -114 941 -9 106 -20 204 -25 217 -5 13 -27 32 -49 43 -21 11 -41 25 -43 30 -1 5 -64 48 -138 96 -74 47 -137 91 -141 96 -3 6 -10 10 -15 9 -4 -1 -11 7 -15 17 -4 10 -8 14 -8 9 -1 -5 -10 -1 -21 9 -20 18 -21 18 -15 -1 5 -18 5 -18 -5 1 -7 11 -46 36 -87 55 -77 35 -123 65 -123 79 0 15 114 178 214 306 56 72 178 230 271 353 155 205 169 227 170 265 0 23 5 42 10 42 7 0 10 -224 11 -650 1 -415 5 -677 12 -725 6 -41 14 -122 17 -180 19 -320 92 -981 111 -1000 8 -8 474 -39 1174 -80 96 -6 288 -17 425 -25 138 -8 281 -15 319 -15 l69 0 -7 153 c-15 371 -18 735 -7 1017 6 168 15 476 21 685 6 209 13 396 16 415 3 27 2 31 -6 20 -8 -11 -10 13 -8 87 2 55 0 99 -4 97 -9 -6 -1 414 8 428 7 10 25 498 19 507 -2 4 -194 8 -427 10 -602 5 -740 8 -856 20 -57 6 -194 13 -305 16 -111 3 -276 7 -367 10 -138 5 -168 3 -185 -9 -11 -9 -15 -16 -8 -16 8 0 11 -52 8 -202 -2 -112 -6 -215 -10 -229 -4 -16 -2 -30 4 -33 7 -5 11 -56 11 -142 0 -112 -2 -134 -15 -134 -13 0 -15 37 -16 268 -1 147 -3 318 -5 380 -3 96 -1 115 14 130 16 16 59 17 567 14 303 -1 819 -6 1148 -10z m-943 -2099 c36 -18 94 -40 130 -50 91 -23 264 -23 353 1 68 18 111 16 90 -5 -16 -16 -185 -39 -283 -39 -51 0 -116 8 -163 20 -84 21 -198 76 -205 99 -5 15 -8 16 78 -26z m-240 -659 c-14 -36 -14 -36 23 -29 29 6 36 3 51 -21 17 -25 21 -26 78 -20 45 4 59 3 56 -7 -3 -8 -32 -13 -84 -15 -70 -2 -84 0 -114 20 -41 28 -48 52 -24 79 23 25 25 24 14 -7z m869 -21 c-13 -16 -28 -32 -32 -38 -13 -14 3 37 15 53 6 6 17 12 26 12 12 0 10 -6 -9 -27z m56 -80 c11 -40 37 -43 104 -13 53 24 54 24 42 1 -15 -28 -65 -44 -120 -39 -75 7 -144 67 -93 81 38 11 57 2 67 -30z m-877 -298 c59 -30 131 -59 160 -65 57 -10 110 -34 96 -42 -11 -7 -181 34 -214 52 -34 17 -160 102 -160 106 0 8 14 2 118 -51z m979 -51 c-3 -3 -12 -4 -19 -1 -8 3 -5 6 6 6 11 1 17 -2 13 -5z m-83 -34 c-10 -10 -145 -32 -153 -25 -8 9 6 16 50 24 63 13 115 13 103 1z"/>
 <path d="M2125 3704 c22 -3 86 -11 141 -19 77 -12 218 -15 590 -16 269 -1 514 -4 544 -7 l55 -7 -4 -185 c-1 -102 -4 -187 -6 -190 -7 -12 -20 -402 -19 -583 0 -139 4 -201 12 -209 9 -9 12 15 12 109 0 116 1 121 23 128 12 4 27 7 32 6 32 -3 37 42 45 423 4 210 9 386 11 391 1 6 0 30 -5 55 -5 35 -15 51 -43 73 l-36 27 -221 0 c-122 0 -435 2 -696 4 -261 2 -457 2 -435 0z"/>
 <path d="M1200 2720 c0 -12 -2 -15 -52 -75 -61 -72 -98 -123 -98 -133 0 -5 -6 -15 -14 -21 -23 -19 -136 -170 -136 -181 0 -6 -6 -10 -14 -10 -8 0 -18 -9 -21 -20 -4 -11 -22 -41 -41 -65 -19 -25 -34 -49 -34 -53 0 -4 -20 -29 -45 -55 -24 -26 -60 -75 -80 -108 -34 -58 -35 -62 -18 -75 10 -7 28 -15 40 -19 26 -6 286 -173 291 -186 2 -5 9 -9 15 -9 5 0 61 -34 123 -75 62 -41 114 -75 116 -75 2 0 3 51 4 113 0 61 0 168 1 237 0 69 0 280 -1 470 -1 320 -2 345 -19 348 -9 2 -17 -2 -17 -8z"/>
 <path d="M3482 2340 c2 -205 8 -334 14 -340 6 -6 48 -13 95 -16 46 -4 103 -15 127 -25 47 -20 192 -158 192 -183 0 -22 -25 -46 -230 -225 -102 -89 -206 -182 -231 -206 l-45 -44 -1 -205 c0 -113 3 -206 6 -206 3 0 7 -133 7 -296 1 -186 6 -300 12 -306 7 -7 38 10 96 52 97 71 95 63 75 210 -5 41 -14 174 -19 295 -10 219 -22 357 -35 426 -6 30 -3 40 15 57 23 21 319 179 505 269 55 26 102 51 105 54 3 4 70 39 150 79 80 39 151 78 159 85 16 16 6 28 -198 233 -53 54 -114 120 -136 147 -22 28 -49 57 -60 64 -19 14 -161 148 -191 181 -97 105 -186 190 -199 190 -9 0 -14 4 -10 9 11 19 -35 31 -121 31 l-86 0 4 -330z"/>
 <path d="M3438 2280 c-4 -14 -8 -82 -8 -152 0 -107 2 -128 15 -128 12 0 15 16 14 88 -2 129 -12 223 -21 192z"/>
 <path d="M3420 1681 l0 -291 25 10 c67 26 107 56 280 217 44 41 99 92 123 114 24 22 42 45 40 53 -3 13 -155 134 -194 153 -10 6 -62 13 -114 17 -52 3 -110 9 -127 12 l-33 6 0 -291z m134 213 c9 -24 7 -74 -3 -74 -12 0 -21 26 -21 61 0 31 14 39 24 13z m182 -63 c7 -1 15 -8 18 -17 5 -14 -2 -15 -56 -9 -91 9 -112 18 -68 26 19 3 49 5 65 3 17 -1 35 -3 41 -3z m-189 -211 l0 -105 -7 75 c-10 106 -10 205 0 165 4 -16 7 -77 7 -135z"/>
 </g>
<g id="layer103" fill="#515151" stroke="none">
 <path d="M0 1875 l0 -1875 2500 0 2500 0 0 1875 0 1875 -2500 0 -2500 0 0 -1875z m2983 1837 c649 -8 625 -5 612 -62 -4 -14 -10 -173 -15 -355 -5 -181 -11 -390 -15 -462 l-5 -133 43 6 c78 11 73 15 539 -466 285 -294 398 -416 398 -429 0 -4 -37 -25 -82 -46 -297 -138 -838 -422 -876 -459 -11 -11 -11 -34 -2 -122 16 -159 49 -657 50 -739 l0 -70 -53 -29 c-28 -16 -89 -58 -134 -93 l-83 -64 -332 21 c-670 41 -999 61 -1243 75 -271 16 -378 30 -398 50 -23 22 -63 342 -102 805 -32 378 -30 368 -68 389 -17 9 -39 25 -50 35 -22 21 -319 214 -345 224 -9 3 -24 13 -34 21 -10 9 -57 37 -105 62 -60 31 -89 52 -91 65 -3 22 76 139 204 302 102 129 405 529 428 564 26 40 29 83 30 511 1 344 3 390 17 400 17 13 597 13 1712 -1z"/>
 <path d="M2155 3700 c39 -5 104 -13 145 -19 43 -6 290 -11 580 -11 278 0 522 -3 544 -7 l39 -6 -7 -146 c-3 -80 -14 -299 -23 -486 -16 -330 -13 -535 8 -535 5 0 9 54 9 120 0 129 -1 128 56 121 6 -1 16 11 22 26 13 35 34 837 22 868 -4 11 -23 33 -42 47 l-33 25 -695 6 c-400 3 -665 2 -625 -3z"/>
 <path d="M1295 3694 c-7 -3 -10 -53 -8 -142 2 -75 0 -182 -5 -237 -5 -55 -5 -104 -1 -109 13 -14 11 -270 -1 -282 -14 -14 -16 -1298 -1 -1384 5 -36 13 -112 16 -170 24 -397 95 -1017 119 -1026 10 -3 737 -48 1569 -96 338 -19 390 -20 398 -8 5 9 6 66 2 140 -12 213 -9 986 6 1395 16 440 20 936 8 928 -8 -5 -1 412 7 425 2 4 7 81 10 172 4 91 9 204 12 251 l5 86 -458 8 c-679 11 -729 13 -833 24 -52 6 -223 13 -380 16 -157 3 -323 7 -370 9 -47 2 -90 2 -95 0z m723 -2068 c55 -36 149 -64 254 -76 94 -11 155 -6 280 21 60 14 85 6 55 -16 -47 -34 -317 -46 -432 -20 -105 25 -215 79 -215 107 0 14 19 9 58 -16z m-214 -671 c-6 -35 -6 -35 24 -29 25 5 33 2 48 -21 16 -24 23 -27 58 -22 23 2 48 6 56 8 8 2 15 -3 15 -11 0 -32 -120 -35 -192 -5 -40 17 -52 55 -29 90 22 34 28 31 20 -10z m868 -18 c-12 -13 -22 -31 -22 -40 0 -19 4 -21 29 -8 23 13 40 1 50 -35 7 -24 13 -29 38 -28 16 1 47 9 67 19 44 21 58 13 28 -17 -16 -17 -37 -23 -84 -26 -54 -3 -68 0 -98 20 -44 30 -59 77 -36 113 9 14 24 25 33 25 14 0 13 -4 -5 -23z m-814 -384 c44 -30 94 -50 157 -63 67 -14 95 -26 95 -41 0 -10 -2 -10 -128 20 -61 15 -103 33 -161 71 -103 66 -123 89 -47 56 31 -14 69 -34 84 -43z m982 -43 c0 -5 -9 -10 -21 -10 -11 0 -17 5 -14 10 3 6 13 10 21 10 8 0 14 -4 14 -10z m-84 -39 c-3 -4 -40 -14 -82 -20 -71 -12 -96 -10 -81 6 17 17 173 31 163 14z"/>
 <path d="M1184 2691 c-16 -22 -49 -66 -74 -98 -24 -32 -76 -101 -115 -153 -38 -52 -76 -101 -82 -108 -7 -7 -13 -20 -13 -28 0 -8 -6 -14 -13 -14 -7 0 -33 -32 -58 -71 -24 -40 -56 -84 -70 -98 -42 -43 -129 -168 -129 -185 0 -2 17 -11 38 -19 34 -13 336 -205 504 -318 32 -22 59 -39 60 -39 2 0 3 51 3 112 0 62 1 169 1 238 1 128 -2 660 -5 763 0 31 -5 57 -9 57 -5 0 -21 -18 -38 -39z"/>
 <path d="M3484 2338 c4 -183 10 -336 14 -340 4 -4 48 -10 97 -14 68 -5 101 -13 137 -32 53 -28 178 -151 178 -175 0 -23 -22 -44 -267 -260 -122 -108 -225 -202 -230 -209 -9 -15 -13 -408 -4 -408 3 0 7 -136 8 -302 1 -166 6 -305 11 -310 5 -5 39 14 77 42 37 27 71 50 76 50 24 0 30 43 19 138 -7 53 -16 196 -21 317 -10 261 -23 413 -36 426 -16 16 -2 58 26 78 14 10 222 119 461 241 239 123 442 229 450 237 13 12 -2 30 -112 141 -70 70 -153 156 -185 192 -81 90 -272 274 -289 278 -8 2 -14 9 -14 16 0 7 -17 29 -37 49 -21 19 -46 47 -55 60 -10 14 -38 38 -62 54 -25 15 -45 33 -46 39 0 17 -35 24 -124 24 l-79 0 7 -332z"/>
 <path d="M3437 2255 c-4 -22 -7 -89 -7 -148 0 -83 3 -108 13 -105 16 6 19 78 9 198 -6 82 -8 90 -15 55z"/>
 <path d="M3427 1948 c-12 -41 -8 -548 3 -548 21 0 76 28 115 59 62 50 345 314 345 322 0 8 -154 130 -186 147 -12 6 -68 16 -125 22 -57 5 -114 12 -125 16 -16 4 -23 0 -27 -18z m133 -91 c0 -27 -4 -37 -12 -35 -14 5 -23 61 -13 86 10 26 25 -5 25 -51z m181 -27 c10 -6 19 -16 19 -22 0 -11 -147 -4 -159 8 -21 21 103 33 140 14z m-187 -180 c5 -58 3 -105 -3 -120 -11 -29 -11 -34 -16 130 -5 143 9 136 19 -10z"/>
 </g>
<g id="layer104" fill="#717171" stroke="none">
 <path d="M0 1875 l0 -1875 2500 0 2500 0 0 1875 0 1875 -2500 0 -2500 0 0 -1875z m2460 1840 c586 -3 1082 -8 1103 -12 38 -6 39 -6 33 -42 -4 -20 -10 -198 -15 -396 -5 -198 -12 -406 -15 -462 l-7 -102 54 6 c52 5 54 5 113 -44 32 -28 88 -81 124 -119 35 -38 180 -188 321 -334 282 -292 369 -386 369 -398 0 -5 -55 -35 -122 -67 -312 -147 -798 -402 -833 -436 -11 -11 -9 -122 5 -229 12 -93 40 -539 40 -637 0 -40 -4 -73 -8 -73 -13 0 -170 -107 -216 -147 l-41 -35 -90 6 c-49 4 -286 17 -525 31 -239 14 -532 31 -650 40 -118 8 -297 19 -396 25 -179 10 -283 24 -315 41 -25 13 -60 284 -104 799 -33 391 -31 379 -68 399 -16 9 -44 28 -61 42 -34 29 -309 207 -335 217 -9 3 -24 14 -35 23 -10 10 -56 36 -103 59 -46 23 -87 49 -90 57 -4 9 2 31 13 50 15 29 204 284 257 349 16 19 118 153 284 372 51 68 93 127 93 130 1 4 4 32 7 62 3 30 5 223 4 427 -1 362 -1 373 19 393 17 17 29 19 73 15 28 -2 531 -7 1117 -10z"/>
 <path d="M2175 3699 c43 -4 86 -12 95 -16 8 -4 278 -10 600 -13 l585 -5 -2 -145 c-1 -80 -9 -300 -19 -490 -16 -335 -14 -540 7 -540 5 0 9 54 9 120 0 113 1 120 20 122 11 0 26 1 33 2 27 2 37 58 37 210 1 83 5 265 10 404 5 140 5 264 0 276 -4 12 -23 34 -42 48 l-33 25 -690 6 c-422 3 -659 2 -610 -4z"/>
 <path d="M1298 3693 c-21 -5 -23 -19 -5 -27 7 -4 8 -8 2 -11 -6 -3 -9 -55 -7 -132 1 -71 -1 -170 -6 -220 -4 -51 -4 -93 0 -93 12 0 10 -274 -2 -286 -14 -14 -15 -1298 -1 -1384 6 -36 15 -135 21 -220 26 -410 90 -949 114 -969 12 -10 49 -12 1041 -70 1020 -60 925 -57 926 -35 1 11 0 107 -2 214 -8 398 -4 927 10 1330 16 471 20 921 8 913 -5 -3 -7 92 -5 211 2 119 6 216 9 216 4 0 10 71 13 158 3 86 8 200 10 253 l5 96 -507 8 c-687 11 -674 11 -782 24 -52 6 -239 13 -415 16 -176 3 -340 7 -365 9 -25 1 -53 1 -62 -1z m747 -2078 c39 -19 97 -42 130 -51 81 -21 261 -21 341 0 75 19 107 21 102 4 -14 -42 -305 -64 -439 -34 -107 24 -219 79 -219 108 0 13 12 10 85 -27z m-241 -660 c-7 -37 -3 -41 26 -25 16 8 23 5 41 -20 24 -32 56 -38 103 -20 17 6 27 6 32 -1 21 -34 -95 -49 -171 -22 -61 22 -79 56 -51 97 22 35 28 33 20 -9z m868 -18 c-27 -29 -30 -62 -4 -52 35 15 47 10 58 -25 6 -19 19 -36 28 -38 9 -2 41 8 71 22 41 19 55 21 55 11 0 -29 -51 -55 -106 -55 -118 0 -184 81 -118 147 31 31 46 22 16 -10z m-877 -350 c33 -18 69 -38 80 -44 41 -23 92 -41 146 -52 57 -12 99 -34 88 -46 -10 -10 -178 33 -224 56 -59 31 -165 102 -165 111 0 13 12 9 75 -25z m1045 -77 c0 -5 -9 -10 -20 -10 -11 0 -20 5 -20 10 0 6 9 10 20 10 11 0 20 -4 20 -10z m-86 -40 c-11 -11 -153 -34 -161 -26 -10 9 3 18 39 26 49 12 134 12 122 0z"/>
 <path d="M1191 2698 c-11 -18 -31 -44 -44 -58 -13 -14 -41 -50 -63 -81 -36 -52 -116 -159 -163 -221 -12 -14 -21 -31 -21 -37 0 -6 -6 -11 -12 -11 -7 0 -35 -35 -63 -78 -27 -42 -70 -100 -95 -129 -26 -28 -54 -67 -64 -87 -9 -19 -21 -38 -26 -41 -19 -11 -10 -23 28 -38 21 -8 146 -85 277 -171 132 -86 251 -162 265 -170 l25 -14 -1 532 c-2 652 -2 636 -13 636 -5 0 -19 -15 -30 -32z"/>
 <path d="M3487 2663 c-12 -12 -1 -641 12 -662 4 -5 47 -13 96 -16 50 -4 106 -15 125 -23 51 -24 190 -160 190 -186 0 -16 -64 -79 -236 -231 -130 -114 -243 -220 -252 -234 -14 -21 -17 -56 -18 -218 0 -106 2 -193 5 -193 3 0 7 -136 8 -302 2 -166 7 -306 11 -310 5 -5 39 14 77 42 37 27 72 50 77 50 20 0 27 52 17 128 -6 42 -14 183 -19 312 -11 272 -24 428 -37 441 -14 14 -4 55 16 72 9 8 216 117 461 242 245 125 452 234 460 242 13 11 -7 35 -147 176 -90 89 -175 178 -191 198 -15 21 -61 67 -101 104 -41 37 -87 83 -103 101 -17 19 -36 34 -44 34 -8 0 -14 6 -14 13 0 8 -17 30 -37 50 -21 19 -58 56 -82 81 -25 25 -53 48 -63 52 -10 3 -18 11 -18 19 0 7 -10 15 -22 19 -31 8 -163 8 -171 -1z"/>
 <path d="M3437 2240 c-10 -81 -9 -228 3 -235 19 -12 22 24 13 157 -7 119 -9 127 -16 78z"/>
 <path d="M3426 1940 c-3 -18 -6 -147 -6 -287 l0 -255 28 7 c44 10 92 47 227 172 71 65 143 131 162 146 63 54 62 59 -23 124 -116 89 -116 89 -232 101 -59 7 -116 14 -128 18 -18 5 -22 0 -28 -26z m128 -36 c12 -32 7 -84 -9 -84 -11 0 -15 12 -15 50 0 49 12 66 24 34z m194 -76 c25 -25 11 -31 -64 -25 -80 6 -90 9 -79 26 9 15 128 14 143 -1z m-193 -175 c7 -92 1 -153 -13 -139 -3 3 -7 68 -8 143 -4 157 10 155 21 -4z"/>
 </g>
<g id="layer105" fill="#ffffff" stroke="none">
 <path d="M0 1875 l0 -1875 2500 0 2500 0 0 1875 0 1875 -2500 0 -2500 0 0 -1875z m2992 1837 c328 -4 600 -10 604 -14 4 -5 2 -45 -4 -90 -6 -46 -14 -266 -16 -490 l-5 -408 57 0 57 0 248 -252 c329 -334 607 -628 607 -642 0 -6 -152 -86 -338 -178 -298 -148 -510 -260 -594 -315 -27 -17 -28 -22 -28 -97 0 -44 5 -105 10 -135 13 -71 50 -674 43 -701 -3 -11 -31 -34 -62 -52 -31 -17 -89 -58 -130 -91 l-74 -60 -121 6 c-189 10 -937 55 -1186 72 -124 8 -300 19 -392 25 -182 11 -266 24 -285 43 -22 22 -63 357 -103 832 -30 365 -24 337 -76 370 -24 15 -49 34 -55 41 -15 19 -323 214 -336 214 -6 0 -13 4 -15 8 -5 14 -67 53 -89 57 -31 6 -109 54 -116 71 -13 33 -11 35 347 505 102 134 210 276 241 316 l55 73 11 123 c7 74 9 246 6 438 -4 267 -3 318 10 330 15 16 376 16 1729 1z"/>
 <path d="M2175 3699 c43 -4 86 -12 95 -16 8 -4 278 -10 600 -13 l585 -5 -2 -185 c0 -102 -9 -323 -18 -491 -18 -309 -15 -506 7 -493 7 5 8 45 4 120 l-7 112 40 7 c23 4 42 14 47 23 5 13 23 523 28 825 1 50 -5 58 -69 101 -16 11 -153 15 -705 19 -422 3 -655 2 -605 -4z"/>
 <path d="M1286 3681 c-4 -5 0 -12 6 -15 8 -4 9 -8 3 -11 -6 -3 -9 -134 -8 -367 1 -221 -2 -365 -7 -368 -14 -9 -15 -1289 -1 -1366 6 -32 15 -126 20 -209 18 -273 77 -840 97 -935 12 -55 16 -59 47 -65 51 -8 1629 -100 1852 -107 l80 -3 0 645 c1 355 6 812 13 1015 16 469 17 552 10 924 -3 168 -2 312 3 320 9 17 27 491 19 496 -3 1 -261 6 -575 9 -313 4 -595 11 -626 17 -139 24 -921 40 -933 20z m751 -2061 c68 -42 151 -61 283 -67 87 -4 131 -1 179 11 79 20 121 21 121 1 0 -20 -56 -34 -200 -47 -108 -9 -136 -9 -210 6 -113 23 -269 94 -255 116 10 17 32 11 82 -20z m-217 -639 c0 -6 -4 -13 -10 -16 -5 -3 -10 -15 -10 -26 0 -17 3 -18 21 -8 18 9 26 6 55 -22 34 -33 35 -33 81 -21 48 13 78 3 57 -18 -31 -31 -187 -19 -226 17 -23 20 -23 61 -1 85 17 20 33 24 33 9z m870 -24 c0 -8 -9 -22 -20 -32 -30 -27 -27 -48 5 -33 31 14 50 0 59 -43 5 -29 8 -30 38 -24 18 4 50 16 71 26 37 19 37 19 37 -1 0 -20 -33 -42 -82 -54 -38 -9 -113 12 -143 40 -32 29 -34 85 -5 114 23 23 40 26 40 7z m-835 -400 c61 -30 128 -58 150 -62 61 -10 105 -28 105 -42 0 -17 -7 -17 -110 7 -91 22 -201 78 -270 139 -31 27 -32 30 -10 22 14 -5 75 -33 135 -64z m985 -47 c0 -5 -9 -10 -20 -10 -11 0 -20 5 -20 10 0 6 9 10 20 10 11 0 20 -4 20 -10z m-80 -39 c0 -9 -107 -31 -153 -31 -35 0 -35 18 1 26 15 3 32 7 37 9 23 8 115 4 115 -4z"/>
 <path d="M1185 2688 c-15 -24 -38 -54 -50 -68 -13 -14 -43 -53 -67 -87 -23 -34 -70 -97 -103 -140 -33 -43 -62 -84 -65 -91 -3 -8 -8 -12 -12 -10 -3 2 -30 -33 -59 -77 -29 -44 -73 -102 -97 -130 -39 -44 -98 -143 -90 -150 2 -1 17 -9 33 -18 17 -8 150 -92 295 -186 145 -94 265 -169 267 -168 1 2 -1 15 -5 30 -4 15 -4 74 -1 131 4 58 5 281 3 498 -2 216 -3 419 -4 451 0 31 -4 57 -9 57 -4 0 -21 -19 -36 -42z"/>
 <path d="M3491 2364 c1 -170 4 -322 8 -339 6 -30 6 -30 106 -40 56 -6 114 -18 132 -28 46 -25 173 -158 173 -183 0 -14 -69 -81 -231 -224 -127 -112 -240 -218 -252 -234 -20 -28 -22 -43 -22 -216 -1 -102 1 -189 4 -195 3 -5 6 -91 7 -190 4 -370 5 -400 13 -414 8 -13 12 -13 29 0 11 8 48 34 82 58 l63 44 -7 91 c-4 50 -11 197 -16 326 -11 284 -24 425 -40 445 -7 8 -10 25 -6 39 4 18 39 41 156 102 82 43 150 81 150 84 0 4 6 7 13 7 7 0 151 70 320 157 203 104 307 163 307 173 0 8 -68 84 -152 167 -83 83 -167 172 -187 197 -20 25 -63 69 -96 98 -33 29 -79 72 -101 95 -23 22 -47 46 -52 51 -6 6 -47 46 -90 90 -142 144 -133 138 -228 143 l-84 5 1 -309z"/>
 <path d="M3437 2211 c-10 -87 -9 -199 2 -205 15 -10 19 35 12 154 -6 114 -6 114 -14 51z"/>
 <path d="M3427 1870 c-4 -51 -7 -178 -7 -282 l0 -189 23 6 c48 15 101 55 261 200 145 130 188 177 174 190 -1 1 -43 34 -93 71 -87 66 -93 69 -160 75 -38 4 -97 10 -131 14 l-61 7 -6 -92z m135 15 c9 -35 0 -77 -15 -72 -15 5 -28 57 -22 85 7 31 27 23 37 -13z m193 -70 c0 -18 -5 -20 -60 -16 -126 7 -142 44 -17 39 69 -3 77 -5 77 -23z m-198 -175 c5 -111 4 -132 -8 -128 -9 3 -14 21 -15 49 -1 24 -5 79 -9 121 -8 82 -2 119 16 101 6 -6 13 -70 16 -143z"/>
 </g>

</svg>