<svg id="Layer_1" data-name="Layer 1" xmlns="http://www.w3.org/2000/svg" viewBox="0 0 308.41 272.4"><defs><style>.cls-1{fill:none;}.cls-1,.cls-2{stroke:#f79253;stroke-miterlimit:10;stroke-width:8px;}.cls-2{fill:#f79253;}</style></defs><path class="cls-1" d="M86.07,265.21l162.76,3.12c10.67-158.7-7.28-251.1-7.28-251.1L92.67,4.35,89.29,137.91l-1.4,55.38Z"/><polyline class="cls-1" points="76.56 193.29 76.74 263.79 84.7 265.33"/><line class="cls-1" x1="76.42" y1="137.35" x2="76.33" y2="101.38"/><polyline class="cls-1" points="76.3 88.52 76.13 20.27 92.32 2.97"/><polyline class="cls-1" points="251.82 202.91 301.88 134.49 250.51 104.79"/><polyline class="cls-1" points="78.45 84.91 5.86 126.24 69.98 193.29 87.89 193.29 89.29 137.91 67.51 136.97 53.11 123.09 90.25 88.37"/><path class="cls-1" d="M199.73,113s-19.21-16.22-49.87-5.62"/><line class="cls-1" x1="217.36" y1="36.61" x2="188.11" y2="24.02"/><line class="cls-1" x1="152.03" y1="23.42" x2="130.36" y2="30.32"/><path class="cls-1" d="M214.8,67.36s10.68-16.1-20-12"/><path class="cls-1" d="M146.34,63.54s4.88-2.95,4.18-6.62c-1.17-6.11-9.93-13.21-24.73-4.58"/><circle class="cls-2" cx="143.18" cy="52.98" r="3.03"/><circle class="cls-2" cx="208.22" cy="59.33" r="3.03"/><path class="cls-1" d="M170.91,141.66l-.53,15.61c.2,4.36-2.69,8.11-6.44,8.39L119.7,168.9c-3.76.27-7-3-7.16-7.4"/><path class="cls-1" d="M170.91,141.66l-.12,15.76c-.47,4.34,2.18,8.26,5.91,8.76l44,5.87c3.73.5,7.14-2.61,7.6-7"/><path class="cls-1" d="M169.73,178l-.53,15.6c.2,4.36-2.69,8.12-6.44,8.39l-44.24,3.24c-3.76.28-7-3-7.16-7.39"/><path class="cls-1" d="M169.73,178l-.12,15.75c-.47,4.34,2.18,8.26,5.91,8.76l44,5.87c3.73.5,7.14-2.61,7.6-6.95"/><path class="cls-1" d="M168.45,214.48l-.54,15.6c.2,4.36-2.68,8.12-6.44,8.39l-44.23,3.24c-3.76.28-7-3-7.17-7.4"/><path class="cls-1" d="M168.45,214.48l-.13,15.75c-.46,4.34,2.18,8.26,5.92,8.76l44,5.87c3.73.5,7.13-2.61,7.6-7"/></svg>