<svg id="Layer_1" data-name="Layer 1" xmlns="http://www.w3.org/2000/svg" viewBox="0 0 995.08 292.63"><defs><style>.cls-1{fill:none;}.cls-1,.cls-2{stroke:#f79253;stroke-miterlimit:10;stroke-width:8px;}.cls-2{fill:#f79253;}.cls-3{fill:#7a7a7a;}</style></defs><path class="cls-1" d="M908.44,265.21l-162.76,3.12C735,109.63,753,17.23,753,17.23L901.84,4.35l3.38,133.56,1.4,55.38Z"/><polyline class="cls-1" points="909.8 265.33 917.77 263.79 917.95 193.29"/><line class="cls-1" x1="918.18" y1="101.38" x2="918.09" y2="137.35"/><polyline class="cls-1" points="902.19 2.97 918.38 20.27 918.21 88.52"/><polyline class="cls-1" points="742.68 202.91 692.63 134.49 744 104.79"/><polyline class="cls-1" points="916.06 84.91 988.65 126.24 924.52 193.29 906.62 193.29 905.22 137.91 927 136.97 941.4 123.09 904.26 88.37"/><path class="cls-1" d="M794.77,113s19.22-16.22,49.88-5.62"/><line class="cls-1" x1="777.15" y1="36.61" x2="806.4" y2="24.02"/><line class="cls-1" x1="842.47" y1="23.42" x2="864.15" y2="30.32"/><path class="cls-1" d="M779.71,67.36s-10.69-16.1,20-12"/><path class="cls-1" d="M848.16,63.54s-4.87-2.95-4.17-6.62c1.16-6.11,9.93-13.21,24.73-4.58"/><circle class="cls-2" cx="851.32" cy="52.98" r="3.03"/><circle class="cls-2" cx="786.29" cy="59.33" r="3.03"/><path class="cls-1" d="M823.6,141.66l.53,15.61c-.2,4.36,2.68,8.11,6.44,8.39l44.24,3.24c3.75.27,7-3,7.16-7.4"/><path class="cls-1" d="M823.6,141.66l.12,15.76c.47,4.34-2.18,8.26-5.91,8.76l-44,5.87c-3.74.5-7.14-2.61-7.6-7"/><path class="cls-1" d="M824.78,178l.53,15.6c-.2,4.36,2.68,8.12,6.44,8.39L876,205.24c3.75.28,7-3,7.16-7.39"/><path class="cls-1" d="M824.78,178l.12,15.75c.47,4.34-2.18,8.26-5.91,8.76l-44,5.87c-3.74.5-7.14-2.61-7.6-6.95"/><path class="cls-1" d="M826.06,214.48l.54,15.6c-.2,4.36,2.68,8.12,6.43,8.39l44.24,3.24c3.76.28,7-3,7.16-7.4"/><path class="cls-1" d="M826.06,214.48l.13,15.75c.46,4.34-2.19,8.26-5.92,8.76l-44,5.87c-3.73.5-7.13-2.61-7.6-7"/><path class="cls-3" d="M9.75,168.14H0v-12.9H42.9c16.35,0,29.25,4.65,39,14.1,9.75,9.3,14.7,22.19,14.7,38.69,0,16.65-4.95,29.55-14.7,39s-22.65,14.1-39,14.1H19.5c-6.75,0-9.75-2.85-9.75-9.6Zm15,76.79c0,2.25,1.05,3.3,3.3,3.3h13.8C66,248.23,81,233.68,81,208c0-25.35-15.15-39.89-39.15-39.89H24.75Z"/><path class="cls-3" d="M117.9,194.39c7.2-7.36,16.35-11,27.3-11,10.35,0,18.3,3.46,24,10.21,5.85,6.74,8.7,15.14,8.7,25.34a51.44,51.44,0,0,1-.45,6.15H122.1c.45,8,3.15,14.1,8.1,18.6a26.76,26.76,0,0,0,18.15,6.6c10.05,0,17.1-5.25,21-7.8l1.35-1.05,6.15,10.65a51.9,51.9,0,0,1-6,4.2,54,54,0,0,1-10.2,4.35,40.69,40.69,0,0,1-13.2,2.25c-11.85,0-21.45-3.75-29.1-11.25-7.5-7.65-11.25-17.1-11.25-28.5Q107.1,205.41,117.9,194.39Zm45.45,20.24c-.45-12.6-8.1-19.95-18.45-19.95-11.4,0-20.25,7.5-22.2,19.95Z"/><path class="cls-3" d="M200.1,274.63a42.29,42.29,0,0,0,20.69,5.1c14.4,0,24.15-6.75,24.15-21.15v-5.1l.15-4.8h-.3c-4.65,7.65-12.15,11.55-22.5,11.55s-18.59-3.6-24.74-11-9.3-16.65-9.3-27.9,3-20.25,8.85-27.3c6-7.05,14.1-10.65,24.44-10.65,15,0,21.9,7.5,23.85,10.65l.6,1.2h.3a12.8,12.8,0,0,1-.15-2.39q0-7.66,8.55-7.66h14.1v12.45h-6.15c-2.25,0-3.3,1-3.3,3V258c0,25-18.9,34.65-38.25,34.65a55.94,55.94,0,0,1-25.79-6.3Zm45.14-53.1c0-16.95-7.2-25.5-21.45-25.5-13,0-20.69,9.45-20.69,25.05,0,16,8.4,26.55,22,26.55C237,247.63,245.24,240,245.24,221.53Z"/><path class="cls-3" d="M284.84,261.13V201c0-2.25-1-3.3-3.3-3.3h-6.15V185.23h13.95c6.45,0,9.6,3,9.6,8.85v4.8l-.3,5.25h.3c3.75-11.55,12.75-19.79,24-19.79l3.9.3V199a19,19,0,0,0-4.2-.45c-9.6,0-17.85,6.6-21.45,17.85a46.32,46.32,0,0,0-1.8,13.65v31Z"/><path class="cls-3" d="M342.44,194.39c7.2-7.36,16.35-11,27.3-11,10.35,0,18.3,3.46,24,10.21s8.7,15.14,8.7,25.34a51.44,51.44,0,0,1-.45,6.15H346.64c.45,8,3.15,14.1,8.1,18.6a26.76,26.76,0,0,0,18.15,6.6c10.05,0,17.1-5.25,21-7.8l1.35-1.05,6.15,10.65a51.9,51.9,0,0,1-6,4.2,54,54,0,0,1-10.2,4.35,40.69,40.69,0,0,1-13.2,2.25c-11.85,0-21.45-3.75-29.1-11.25-7.5-7.65-11.25-17.1-11.25-28.5Q331.64,205.41,342.44,194.39Zm45.45,20.24c-.45-12.6-8.1-19.95-18.45-19.95-11.4,0-20.25,7.5-22.2,19.95Z"/><path class="cls-3" d="M423.29,194.39c7.2-7.36,16.35-11,27.3-11,10.35,0,18.3,3.46,24,10.21,5.85,6.74,8.7,15.14,8.7,25.34a51.44,51.44,0,0,1-.45,6.15H427.49c.45,8,3.15,14.1,8.1,18.6a26.76,26.76,0,0,0,18.15,6.6c10.05,0,17.1-5.25,21-7.8l1.35-1.05,6.15,10.65a51.9,51.9,0,0,1-6,4.2,54,54,0,0,1-10.2,4.35,40.69,40.69,0,0,1-13.2,2.25c-11.85,0-21.45-3.75-29.1-11.25-7.5-7.65-11.25-17.1-11.25-28.5Q412.49,205.41,423.29,194.39Zm45.45,20.24c-.45-12.6-8.1-19.95-18.45-19.95-11.4,0-20.25,7.5-22.2,19.95Z"/><path class="cls-3" d="M493.94,261.13v-8.4l38.85-48,6.15-7v-.3c-1.5.15-3.9.3-7.2.3H510.89c-2.25,0-3.3,1-3.3,3.3v5.1H494.24V194.83c0-6.74,3-9.6,9.75-9.6h54.15v8.41l-38.85,48.14-6.3,6.9v.3c1.65-.15,4-.3,7.35-.3h24.15c2.25,0,3.3-1.05,3.3-3.3v-5.1h13.35v11.25c0,6.75-2.85,9.6-9.6,9.6Z"/><path class="cls-3" d="M567.89,286.93l-1.95-1.8,6-10.5c.15.6,4.95,5.4,11.1,5.4,5.85,0,10.2-3.6,13.35-10.95l3.45-8.25-26-60.15a4.75,4.75,0,0,0-4.65-3h-2V185.23h8.55c6.15,0,8.55,1.66,10.95,7.66l17.1,42.74,2.7,9.15h.3a77.63,77.63,0,0,1,2.55-9.15l15.9-42.74c1.95-6,4.8-7.66,10.95-7.66H645v12.45h-2a5,5,0,0,0-4.8,3l-29.85,74.1c-4.8,11.55-13.8,17.85-24.6,17.85C577.19,292.63,570.44,289.48,567.89,286.93Z"/></svg>