<svg id="Layer_1" data-name="Layer 1" xmlns="http://www.w3.org/2000/svg" viewBox="0 0 308.41 272.4"><defs><style>.cls-1{fill:none;}.cls-1,.cls-2{stroke:#fff;stroke-miterlimit:10;stroke-width:8px;}.cls-2{fill:#fff;}</style></defs><path class="cls-1" d="M221.67,265.21,58.91,268.33c-10.67-158.7,7.28-251.1,7.28-251.1L215.07,4.35l3.38,133.56,1.4,55.38Z"/><polyline class="cls-1" points="223.03 265.33 231 263.79 231.18 193.29"/><line class="cls-1" x1="231.41" y1="101.38" x2="231.32" y2="137.35"/><polyline class="cls-1" points="215.42 2.97 231.61 20.27 231.44 88.52"/><polyline class="cls-1" points="55.92 202.91 5.86 134.49 57.23 104.79"/><polyline class="cls-1" points="229.29 84.91 301.88 126.24 237.76 193.29 219.85 193.29 218.45 137.91 240.23 136.97 254.63 123.09 217.49 88.37"/><path class="cls-1" d="M108,113s19.21-16.22,49.87-5.62"/><line class="cls-1" x1="90.38" y1="36.61" x2="119.63" y2="24.02"/><line class="cls-1" x1="155.71" y1="23.42" x2="177.38" y2="30.32"/><path class="cls-1" d="M92.94,67.36s-10.68-16.1,20-12"/><path class="cls-1" d="M161.4,63.54s-4.88-2.95-4.18-6.62c1.17-6.11,9.93-13.21,24.73-4.58"/><circle class="cls-2" cx="164.56" cy="52.98" r="3.03"/><circle class="cls-2" cx="99.52" cy="59.33" r="3.03"/><path class="cls-1" d="M136.83,141.66l.53,15.61c-.2,4.36,2.69,8.11,6.44,8.39L188,168.9c3.76.27,7-3,7.16-7.4"/><path class="cls-1" d="M136.83,141.66l.12,15.76c.47,4.34-2.18,8.26-5.91,8.76l-44,5.87c-3.73.5-7.14-2.61-7.6-7"/><path class="cls-1" d="M138,178l.53,15.6c-.2,4.36,2.69,8.12,6.44,8.39l44.24,3.24c3.76.28,7-3,7.16-7.39"/><path class="cls-1" d="M138,178l.12,15.75c.47,4.34-2.18,8.26-5.91,8.76l-44,5.87c-3.73.5-7.14-2.61-7.6-6.95"/><path class="cls-1" d="M139.29,214.48l.54,15.6c-.2,4.36,2.68,8.12,6.44,8.39l44.23,3.24c3.76.28,7-3,7.17-7.4"/><path class="cls-1" d="M139.29,214.48l.13,15.75c.46,4.34-2.18,8.26-5.92,8.76l-44,5.87c-3.73.5-7.13-2.61-7.6-7"/></svg>