<svg id="Layer_1" data-name="Layer 1" xmlns="http://www.w3.org/2000/svg" viewBox="0 0 644.99 137.39"><defs><style>.cls-1{fill:#7a7a7a;}</style></defs><path class="cls-1" d="M9.75,12.9H0V0H42.9c16.35,0,29.25,4.65,39,14.1S96.6,36.3,96.6,52.8c0,16.65-4.95,29.55-14.7,39s-22.65,14.1-39,14.1H19.5c-6.75,0-9.75-2.85-9.75-9.6Zm15,76.8c0,2.25,1.05,3.3,3.3,3.3h13.8C66,93,81,78.45,81,52.8c0-25.35-15.15-39.9-39.15-39.9H24.75Z"/><path class="cls-1" d="M117.9,39.15c7.2-7.35,16.35-10.95,27.3-10.95,10.35,0,18.3,3.45,24,10.2,5.85,6.75,8.7,15.15,8.7,25.35a51.44,51.44,0,0,1-.45,6.15H122.1c.45,7.95,3.15,14.1,8.1,18.6a26.76,26.76,0,0,0,18.15,6.6c10.05,0,17.1-5.25,21-7.8l1.35-1,6.15,10.65a51.9,51.9,0,0,1-6,4.2,54,54,0,0,1-10.2,4.35,40.69,40.69,0,0,1-13.2,2.25c-11.85,0-21.45-3.75-29.1-11.25-7.5-7.65-11.25-17.1-11.25-28.5Q107.1,50.18,117.9,39.15ZM163.35,59.4c-.45-12.6-8.1-19.95-18.45-19.95-11.4,0-20.25,7.5-22.2,19.95Z"/><path class="cls-1" d="M200.1,119.39a42.3,42.3,0,0,0,20.69,5.11c14.4,0,24.15-6.75,24.15-21.15v-5.1l.15-4.8h-.3c-4.65,7.65-12.15,11.55-22.5,11.55s-18.59-3.6-24.74-11-9.3-16.65-9.3-27.9,3-20.25,8.85-27.3c6-7,14.1-10.65,24.44-10.65,15,0,21.9,7.5,23.85,10.65l.6,1.2h.3a12.9,12.9,0,0,1-.15-2.4q0-7.65,8.55-7.65h14.1V42.45h-6.15c-2.25,0-3.3,1-3.3,3v57.3c0,25-18.9,34.64-38.25,34.64a55.94,55.94,0,0,1-25.79-6.3ZM245.24,66.3c0-16.95-7.2-25.5-21.45-25.5-13,0-20.69,9.45-20.69,25,0,16.05,8.4,26.55,22,26.55C237,92.4,245.24,84.75,245.24,66.3Z"/><path class="cls-1" d="M284.84,105.9V45.75c0-2.25-1-3.3-3.3-3.3h-6.15V30h13.95c6.45,0,9.6,3,9.6,8.85v4.8l-.3,5.25h.3c3.75-11.55,12.75-19.8,24-19.8l3.9.3V43.8a19,19,0,0,0-4.2-.45c-9.6,0-17.85,6.6-21.45,17.85a46.32,46.32,0,0,0-1.8,13.65V105.9Z"/><path class="cls-1" d="M342.44,39.15c7.2-7.35,16.35-10.95,27.3-10.95,10.35,0,18.3,3.45,24,10.2s8.7,15.15,8.7,25.35A51.44,51.44,0,0,1,402,69.9H346.64c.45,7.95,3.15,14.1,8.1,18.6a26.76,26.76,0,0,0,18.15,6.6c10.05,0,17.1-5.25,21-7.8l1.35-1,6.15,10.65a51.9,51.9,0,0,1-6,4.2,54,54,0,0,1-10.2,4.35A40.69,40.69,0,0,1,372,107.7c-11.85,0-21.45-3.75-29.1-11.25-7.5-7.65-11.25-17.1-11.25-28.5Q331.64,50.18,342.44,39.15ZM387.89,59.4c-.45-12.6-8.1-19.95-18.45-19.95-11.4,0-20.25,7.5-22.2,19.95Z"/><path class="cls-1" d="M423.29,39.15c7.2-7.35,16.35-10.95,27.3-10.95,10.35,0,18.3,3.45,24,10.2,5.85,6.75,8.7,15.15,8.7,25.35a51.44,51.44,0,0,1-.45,6.15H427.49c.45,7.95,3.15,14.1,8.1,18.6a26.76,26.76,0,0,0,18.15,6.6c10.05,0,17.1-5.25,21-7.8l1.35-1,6.15,10.65a51.9,51.9,0,0,1-6,4.2,54,54,0,0,1-10.2,4.35,40.69,40.69,0,0,1-13.2,2.25c-11.85,0-21.45-3.75-29.1-11.25-7.5-7.65-11.25-17.1-11.25-28.5Q412.49,50.18,423.29,39.15ZM468.74,59.4c-.45-12.6-8.1-19.95-18.45-19.95-11.4,0-20.25,7.5-22.2,19.95Z"/><path class="cls-1" d="M493.94,105.9V97.5l38.85-48,6.15-7v-.3c-1.5.15-3.9.3-7.2.3H510.89c-2.25,0-3.3,1-3.3,3.3v5.1H494.24V39.6c0-6.75,3-9.6,9.75-9.6h54.15v8.4L519.29,86.55l-6.3,6.9v.3c1.65-.15,4-.3,7.35-.3h24.15c2.25,0,3.3-1,3.3-3.3v-5.1h13.35V96.3c0,6.75-2.85,9.6-9.6,9.6Z"/><path class="cls-1" d="M567.89,131.69l-1.95-1.8,6-10.5c.15.61,4.95,5.4,11.1,5.4,5.85,0,10.2-3.59,13.35-11l3.45-8.24-26-60.15a4.75,4.75,0,0,0-4.65-3h-2V30h8.55c6.15,0,8.55,1.65,10.95,7.65l17.1,42.75,2.7,9.15h.3a77.63,77.63,0,0,1,2.55-9.15l15.9-42.75c1.95-6,4.8-7.65,10.95-7.65H645V42.45h-2a5,5,0,0,0-4.8,3l-29.85,74.09c-4.8,11.55-13.8,17.85-24.6,17.85C577.19,137.39,570.44,134.24,567.89,131.69Z"/></svg>